<?xml version="1.0" encoding="utf-8"?>
<!-- Generator: Adobe Illustrator 24.1.0, SVG Export Plug-In . SVG Version: 6.00 Build 0)  -->
<svg version="1.1" id="Layer_1" xmlns="http://www.w3.org/2000/svg" xmlns:xlink="http://www.w3.org/1999/xlink" x="0px" y="0px"
	 viewBox="0 0 582.4 458.5" style="enable-background:new 0 0 582.4 458.5;" xml:space="preserve">
<style type="text/css">
	.st0{fill:#EEF2F5;}
	.st1{fill:#5252EE;}
	.st2{fill:#7F7FF0;}
	.st3{opacity:0.2;}
	.st4{fill:#363636;}
	.st5{fill:#FF4585;}
	.st6{fill:#00E5A0;}
	.st7{fill:#374785;}
</style>
<ellipse class="st0" cx="291.2" cy="428.5" rx="291.2" ry="30"/>
<path class="st1" d="M150.1,379.5V156.4c0-12.9,10.5-23.4,23.4-23.4h93.8c12.9,0,23.4,10.5,23.4,23.4v223.1
	c0,12.9-10.5,23.4-23.4,23.4h-93.8C160.6,402.9,150.1,392.4,150.1,379.5z"/>
<path class="st2" d="M0,0"/>
<path class="st2" d="M0,0"/>
<path class="st2" d="M34,376.4v-217c0-14.6,11.9-26.5,26.5-26.5h137.4c14.6,0,26.5,11.9,26.5,26.5v217c0,14.6-11.9,26.5-26.5,26.5
	H60.5C45.8,402.9,34,391,34,376.4z"/>
<path class="st2" d="M0,0"/>
<g class="st3">
	<circle cx="47.1" cy="359.4" r="9.2"/>
	<circle cx="47.1" cy="323.4" r="9.2"/>
	<circle cx="47.1" cy="287.3" r="9.2"/>
	<circle cx="47.1" cy="251.3" r="9.2"/>
	<circle cx="47.1" cy="215.3" r="9.2"/>
	<circle cx="47.1" cy="179.2" r="9.2"/>
</g>
<path class="st4" d="M26.3,360.5v-2.3c0-1.9,1.6-3.5,3.5-3.5h14.4c1.9,0,3.5,1.6,3.5,3.5v2.3c0,1.9-1.6,3.5-3.5,3.5H29.8
	C27.9,364,26.3,362.5,26.3,360.5z"/>
<path class="st4" d="M26.3,324.5v-2.3c0-1.9,1.6-3.5,3.5-3.5h14.4c1.9,0,3.5,1.6,3.5,3.5v2.3c0,1.9-1.6,3.5-3.5,3.5H29.8
	C27.9,328,26.3,326.4,26.3,324.5z"/>
<path class="st4" d="M26.3,288.5v-2.3c0-1.9,1.6-3.5,3.5-3.5h14.4c1.9,0,3.5,1.6,3.5,3.5v2.3c0,1.9-1.6,3.5-3.5,3.5H29.8
	C27.9,292,26.3,290.4,26.3,288.5z"/>
<path class="st4" d="M26.3,252.4v-2.3c0-1.9,1.6-3.5,3.5-3.5h14.4c1.9,0,3.5,1.6,3.5,3.5v2.3c0,1.9-1.6,3.5-3.5,3.5H29.8
	C27.9,255.9,26.3,254.4,26.3,252.4z"/>
<path class="st4" d="M26.3,216.4v-2.3c0-1.9,1.6-3.5,3.5-3.5h14.4c1.9,0,3.5,1.6,3.5,3.5v2.3c0,1.9-1.6,3.5-3.5,3.5H29.8
	C27.9,219.9,26.3,218.3,26.3,216.4z"/>
<path class="st4" d="M26.3,180.4v-2.3c0-1.9,1.6-3.5,3.5-3.5h14.4c1.9,0,3.5,1.6,3.5,3.5v2.3c0,1.9-1.6,3.5-3.5,3.5H29.8
	C27.9,183.9,26.3,182.3,26.3,180.4z"/>
<path d="M240.1,142h1.9v147.7h-1.9V142z M240.1,323.8h1.9v70.6h-1.9V323.8z M252.1,239.6h1.9v154.2h-1.9V239.6z M264.6,247.9h-1.9
	V145.5l1.9,1.4V247.9z M262.7,293.7h1.9v35.6h-1.9V293.7z M252.1,166.6h1.9v35.6h-1.9V166.6z M-68.9,66.3 M-68.9,66.3"/>
<path class="st5" d="M0,0"/>
<path class="st6" d="M0,0"/>
<g>
	<path class="st7" d="M388.4,313.6c0,13-2,24.9-6.1,35.9c-4,11-9.9,20.4-17.5,28.2c-7.7,7.9-16.8,13.9-27.4,18.1
		c-10.6,4.2-22.6,6.3-35.9,6.3c-13.2,0-25-2.1-35.6-6.4c-10.5-4.3-19.6-10.3-27.4-18.3c-7.7-7.9-13.6-17.3-17.5-28.1
		c-4-10.8-6-22.7-6-35.8c0-13.2,2-25.3,6.1-36.2c4-11,9.8-20.3,17.4-28.1c7.5-7.8,16.7-13.7,27.4-17.9c10.7-4.2,22.6-6.3,35.6-6.3
		c13.2,0,25.2,2.1,35.9,6.4c10.7,4.3,19.9,10.3,27.6,18.2c7.7,7.9,13.5,17.2,17.5,28.1C386.4,288.5,388.4,300.5,388.4,313.6z"/>
	<path class="st7" d="M564.7,313.6c0,13-2,24.9-6.1,35.9c-4,11-9.9,20.4-17.5,28.2c-7.7,7.9-16.8,13.9-27.4,18.1
		c-10.6,4.2-22.6,6.3-35.9,6.3c-13.2,0-25-2.1-35.6-6.4c-10.5-4.3-19.6-10.3-27.4-18.3c-7.7-7.9-13.6-17.3-17.5-28.1
		c-4-10.8-6-22.7-6-35.8c0-13.2,2-25.3,6.1-36.2c4-11,9.8-20.3,17.4-28.1c7.5-7.8,16.7-13.7,27.4-17.9c10.7-4.2,22.6-6.3,35.6-6.3
		c13.2,0,25.2,2.1,35.9,6.4c10.7,4.3,19.9,10.3,27.6,18.2c7.7,7.9,13.5,17.2,17.5,28.1C562.7,288.5,564.7,300.5,564.7,313.6z
		 M524.6,273.8c0-6.5-1.4-11.6-4.3-15.2c-2.9-3.6-6.7-5.4-11.5-5.4c-3.1,0-5.9,0.8-8.2,2.4c-2.4,1.6-4.2,4-5.5,7.2
		c-1.3,3.2-1.9,6.8-1.9,11c0,4.2,0.6,7.8,1.9,10.9c1.3,3.1,3.1,5.5,5.4,7.2c2.4,1.7,5.1,2.5,8.3,2.5c4.8,0,8.7-1.8,11.5-5.5
		C523.2,285.2,524.6,280.2,524.6,273.8z M524.3,192.4c0-6.5-1.4-11.6-4.3-15.2c-2.9-3.6-6.7-5.4-11.5-5.4c-3.1,0-5.9,0.8-8.2,2.4
		c-2.4,1.6-4.2,4-5.5,7.2c-1.3,3.2-1.9,6.8-1.9,11c0,4.2,0.6,7.8,1.9,10.9c1.3,3.1,3.1,5.5,5.4,7.2c2.4,1.7,5.1,2.5,8.3,2.5
		c4.8,0,8.7-1.8,11.5-5.5C522.8,203.8,524.3,198.8,524.3,192.4z"/>
</g>
<path class="st2" d="M143.4,379.5V156.4c0-12.9,10.5-23.4,23.4-23.4h93.8c12.9,0,23.4,10.5,23.4,23.4v223.1
	c0,12.9-10.5,23.4-23.4,23.4h-93.8C153.8,402.9,143.4,392.4,143.4,379.5z"/>
</svg>
