<?xml version="1.0" encoding="utf-8"?>
<!-- Generator: Adobe Illustrator 24.1.0, SVG Export Plug-In . SVG Version: 6.00 Build 0)  -->
<svg version="1.1" id="Layer_1" xmlns="http://www.w3.org/2000/svg" xmlns:xlink="http://www.w3.org/1999/xlink" x="0px" y="0px"
	 viewBox="0 0 582.4 458.5" style="enable-background:new 0 0 582.4 458.5;" xml:space="preserve">
<style type="text/css">
	.st0{fill:#EEF2F5;}
	.st1{fill:#5252EE;}
	.st2{fill:#7F7FF0;}
	.st3{opacity:0.2;}
	.st4{fill:#363636;}
	.st5{fill:#FF4585;}
	.st6{fill:#FFFFFF;}
	.st7{fill:#00E5A0;}
	.st8{fill:#374785;}
</style>
<ellipse class="st0" cx="291.2" cy="428.5" rx="291.2" ry="30"/>
<path class="st1" d="M147.3,385.4V140.5c0-14.2,11.5-25.7,25.7-25.7h103c14.2,0,25.7,11.5,25.7,25.7v244.9
	c0,14.2-11.5,25.7-25.7,25.7H173C158.8,411.1,147.3,399.6,147.3,385.4z"/>
<path class="st2" d="M0,0"/>
<path class="st2" d="M0,0"/>
<path class="st2" d="M19.8,382V143.9c0-16,13-29.1,29.1-29.1h150.8c16,0,29.1,13,29.1,29.1V382c0,16-13,29.1-29.1,29.1H48.9
	C32.8,411.1,19.8,398.1,19.8,382z"/>
<path class="st2" d="M0,0"/>
<g class="st3">
	<circle cx="34.2" cy="363.3" r="10.1"/>
	<circle cx="34.2" cy="323.8" r="10.1"/>
	<circle cx="34.2" cy="284.2" r="10.1"/>
	<circle cx="34.2" cy="244.7" r="10.1"/>
	<circle cx="34.2" cy="205.1" r="10.1"/>
	<circle cx="34.2" cy="165.6" r="10.1"/>
</g>
<path class="st4" d="M11.4,364.6v-2.5c0-2.1,1.7-3.9,3.9-3.9H31c2.1,0,3.9,1.7,3.9,3.9v2.5c0,2.1-1.7,3.9-3.9,3.9H15.2
	C13.1,368.4,11.4,366.7,11.4,364.6z"/>
<path class="st4" d="M11.4,325v-2.5c0-2.1,1.7-3.9,3.9-3.9H31c2.1,0,3.9,1.7,3.9,3.9v2.5c0,2.1-1.7,3.9-3.9,3.9H15.2
	C13.1,328.9,11.4,327.1,11.4,325z"/>
<path class="st4" d="M11.4,285.5V283c0-2.1,1.7-3.9,3.9-3.9H31c2.1,0,3.9,1.7,3.9,3.9v2.5c0,2.1-1.7,3.9-3.9,3.9H15.2
	C13.1,289.3,11.4,287.6,11.4,285.5z"/>
<path class="st4" d="M11.4,245.9v-2.5c0-2.1,1.7-3.9,3.9-3.9H31c2.1,0,3.9,1.7,3.9,3.9v2.5c0,2.1-1.7,3.9-3.9,3.9H15.2
	C13.1,249.8,11.4,248,11.4,245.9z"/>
<path class="st4" d="M11.4,206.4v-2.5c0-2.1,1.7-3.9,3.9-3.9H31c2.1,0,3.9,1.7,3.9,3.9v2.5c0,2.1-1.7,3.9-3.9,3.9H15.2
	C13.1,210.2,11.4,208.5,11.4,206.4z"/>
<path class="st4" d="M11.4,166.8v-2.5c0-2.1,1.7-3.9,3.9-3.9H31c2.1,0,3.9,1.7,3.9,3.9v2.5c0,2.1-1.7,3.9-3.9,3.9H15.2
	C13.1,170.7,11.4,168.9,11.4,166.8z"/>
<path class="st5" d="M377.7,66.8l58,34.1c5.4,3.2,7.3,10.2,4.1,15.7l-18.5,31.6c-3.2,5.4-10.2,7.3-15.7,4.1l-58-34.1
	c-5.4-3.2-7.3-10.2-4.1-15.7L362,70.9C365.2,65.4,372.2,63.6,377.7,66.8z"/>
<path class="st5" d="M0,0"/>
<ellipse transform="matrix(0.6355 -0.7721 0.7721 0.6355 57.855 325.2145)" class="st6" cx="373.4" cy="101.3" rx="5.8" ry="5.8"/>
<ellipse transform="matrix(0.5036 -0.8639 0.8639 0.5036 97.6637 392.5765)" class="st6" cx="390.5" cy="111.3" rx="5.8" ry="5.8"/>
<ellipse transform="matrix(0.5036 -0.8639 0.8639 0.5036 97.5401 412.4272)" class="st6" cx="407.7" cy="121.3" rx="5.8" ry="5.8"/>
<path class="st7" d="M119.6,40.5l58.7-26.2c5.5-2.5,12,0,14.5,5.5l14.3,32c2.5,5.5,0,12-5.5,14.5l-58.7,26.2c-5.5,2.5-12,0-14.5-5.5
	l-14.3-32C111.7,49.4,114.1,42.9,119.6,40.5z"/>
<path class="st7" d="M0,0"/>
<path class="st6" d="M164.4,66.6l-17.1-5.3l2.4-7.8l9.7,3l7.8-21.2l7.7,2.8C174.9,38.2,164.4,66.6,164.4,66.6z"/>
<g>
	<path class="st8" d="M404.9,310.9c0,13-2,24.9-6.1,35.9c-4,11-9.9,20.4-17.5,28.2c-7.7,7.9-16.8,13.9-27.4,18.1s-22.6,6.3-35.9,6.3
		c-13.2,0-25-2.1-35.6-6.4c-10.5-4.3-19.6-10.3-27.4-18.3c-7.7-7.9-13.6-17.3-17.5-28.1c-4-10.8-6-22.7-6-35.8
		c0-13.2,2-25.3,6.1-36.2c4-11,9.8-20.3,17.4-28.1c7.5-7.8,16.7-13.7,27.4-17.9c10.7-4.2,22.6-6.3,35.6-6.3
		c13.2,0,25.2,2.1,35.9,6.4c10.7,4.3,19.9,10.3,27.6,18.2S395,264.1,399,275C402.9,285.8,404.9,297.8,404.9,310.9z"/>
	<path class="st8" d="M581.2,310.9c0,13-2,24.9-6.1,35.9c-4,11-9.9,20.4-17.5,28.2c-7.7,7.9-16.8,13.9-27.4,18.1
		c-10.6,4.2-22.6,6.3-35.9,6.3c-13.2,0-25-2.1-35.6-6.4c-10.5-4.3-19.6-10.3-27.4-18.3c-7.7-7.9-13.6-17.3-17.5-28.1
		c-4-10.8-6-22.7-6-35.8c0-13.2,2-25.3,6.1-36.2c4-11,9.8-20.3,17.4-28.1c7.5-7.8,16.7-13.7,27.4-17.9c10.7-4.2,22.6-6.3,35.6-6.3
		c13.2,0,25.2,2.1,35.9,6.4c10.7,4.3,19.9,10.3,27.6,18.2s13.5,17.2,17.5,28.1C579.2,285.8,581.2,297.8,581.2,310.9z M541.1,271.1
		c0-6.5-1.4-11.6-4.3-15.2c-2.9-3.6-6.7-5.4-11.5-5.4c-3.1,0-5.9,0.8-8.2,2.4c-2.4,1.6-4.2,4-5.5,7.2s-1.9,6.8-1.9,11
		s0.6,7.8,1.9,10.9s3.1,5.5,5.4,7.2c2.4,1.7,5.1,2.5,8.3,2.5c4.8,0,8.7-1.8,11.5-5.5C539.7,282.5,541.1,277.5,541.1,271.1z
		 M540.8,189.7c0-6.5-1.4-11.6-4.3-15.2c-2.9-3.6-6.7-5.4-11.5-5.4c-3.1,0-5.9,0.8-8.2,2.4c-2.4,1.6-4.2,4-5.5,7.2s-1.9,6.8-1.9,11
		s0.6,7.8,1.9,10.9c1.3,3.1,3.1,5.5,5.4,7.2c2.4,1.7,5.1,2.5,8.3,2.5c4.8,0,8.7-1.8,11.5-5.5C539.3,201.1,540.8,196.1,540.8,189.7z"
		/>
</g>
<path class="st2" d="M139.9,385.4V140.5c0-14.2,11.5-25.7,25.7-25.7h103c14.2,0,25.7,11.5,25.7,25.7v244.9
	c0,14.2-11.5,25.7-25.7,25.7h-103C151.4,411.1,139.9,399.6,139.9,385.4z"/>
<path d="M246,124.7h2.1v162.1H246V124.7z M246,324.3h2.1v77.5H246V324.3z M259.2,231.8h2.1v169.3h-2.1V231.8z M273,241h-2.1V128.6
	l2.1,1.5V241z M270.9,291.3h2.1v39h-2.1V291.3z M259.2,151.7h2.1v39h-2.1V151.7z M-93.1,41.6 M-93.1,41.6"/>
</svg>
