<svg id="Layer_1" data-name="Layer 1" xmlns="http://www.w3.org/2000/svg" viewBox="0 0 36 36"><defs><style>.cls-1{fill:#495aa8;}</style></defs><path class="cls-1" d="M17.86,19.43a9.58,9.58,0,0,1-.56,3.35,7.38,7.38,0,0,1-1.64,2.63A7.2,7.2,0,0,1,13.1,27.1a9.09,9.09,0,0,1-3.35.59,8.77,8.77,0,0,1-3.32-.6,7.43,7.43,0,0,1-2.56-1.71,7.08,7.08,0,0,1-1.63-2.62,9.4,9.4,0,0,1-.56-3.34A9.63,9.63,0,0,1,2.24,16a7.36,7.36,0,0,1,1.63-2.63,7.29,7.29,0,0,1,2.56-1.67,9.08,9.08,0,0,1,3.32-.58,9,9,0,0,1,3.35.59,7.35,7.35,0,0,1,2.58,1.7,7.25,7.25,0,0,1,1.63,2.63A9.61,9.61,0,0,1,17.86,19.43Z"/><path class="cls-1" d="M34.32,19.43a9.58,9.58,0,0,1-.56,3.35,7.38,7.38,0,0,1-1.64,2.63,7.2,7.2,0,0,1-2.56,1.69,9.09,9.09,0,0,1-3.35.59,8.77,8.77,0,0,1-3.32-.6,7.43,7.43,0,0,1-2.56-1.71,7.08,7.08,0,0,1-1.63-2.62,9.4,9.4,0,0,1-.56-3.34A9.63,9.63,0,0,1,18.7,16a7.08,7.08,0,0,1,4.19-4.3,9.08,9.08,0,0,1,3.32-.58,9,9,0,0,1,3.35.59,7.35,7.35,0,0,1,2.58,1.7,7.25,7.25,0,0,1,1.63,2.63A9.61,9.61,0,0,1,34.32,19.43Zm-3.74-3.72a2.22,2.22,0,0,0-.4-1.42A1.42,1.42,0,0,0,28.34,14a1.47,1.47,0,0,0-.51.67,2.74,2.74,0,0,0-.18,1,2.66,2.66,0,0,0,.18,1,1.58,1.58,0,0,0,.5.67,1.28,1.28,0,0,0,.78.23,1.26,1.26,0,0,0,1.07-.51A2.21,2.21,0,0,0,30.58,15.71Zm0-7.6a2.22,2.22,0,0,0-.4-1.42,1.31,1.31,0,0,0-1.07-.5,1.34,1.34,0,0,0-.77.22,1.47,1.47,0,0,0-.51.67,2.74,2.74,0,0,0-.18,1,2.66,2.66,0,0,0,.18,1,1.58,1.58,0,0,0,.5.67,1.31,1.31,0,0,0,.78.24,1.26,1.26,0,0,0,1.07-.52A2.27,2.27,0,0,0,30.55,8.11Z"/></svg>